<svg xmlns="http://www.w3.org/2000/svg" width="900" height="290" style="font-family: -apple-system, BlinkMacSystemFont, 'Segoe UI', Helvetica, Arial, sans-serif;">
  <rect width="100%" height="100%" fill="white"/>
  <g>
    <line x1="40" y1="220.00" x2="860" y2="220.00" stroke="#e5e7eb"/><text x="32" y="224.00" font-size="10" fill="#111827" text-anchor="end">0</text><line x1="40" y1="175.00" x2="860" y2="175.00" stroke="#e5e7eb"/><text x="32" y="179.00" font-size="10" fill="#111827" text-anchor="end">750</text><line x1="40" y1="130.00" x2="860" y2="130.00" stroke="#e5e7eb"/><text x="32" y="134.00" font-size="10" fill="#111827" text-anchor="end">1.5k</text><line x1="40" y1="85.00" x2="860" y2="85.00" stroke="#e5e7eb"/><text x="32" y="89.00" font-size="10" fill="#111827" text-anchor="end">2.2k</text><line x1="40" y1="40.00" x2="860" y2="40.00" stroke="#e5e7eb"/><text x="32" y="44.00" font-size="10" fill="#111827" text-anchor="end">3k</text>
    <line x1="40.00" y1="40" x2="40.00" y2="220" stroke="#e5e7eb" opacity="0.5"/><line x1="120.51" y1="40" x2="120.51" y2="220" stroke="#e5e7eb" opacity="0.5"/><line x1="201.02" y1="40" x2="201.02" y2="220" stroke="#e5e7eb" opacity="0.5"/><line x1="281.53" y1="40" x2="281.53" y2="220" stroke="#e5e7eb" opacity="0.5"/><line x1="362.04" y1="40" x2="362.04" y2="220" stroke="#e5e7eb" opacity="0.5"/><line x1="442.55" y1="40" x2="442.55" y2="220" stroke="#e5e7eb" opacity="0.5"/><line x1="523.05" y1="40" x2="523.05" y2="220" stroke="#e5e7eb" opacity="0.5"/><line x1="603.56" y1="40" x2="603.56" y2="220" stroke="#e5e7eb" opacity="0.5"/><line x1="684.07" y1="40" x2="684.07" y2="220" stroke="#e5e7eb" opacity="0.5"/><line x1="764.58" y1="40" x2="764.58" y2="220" stroke="#e5e7eb" opacity="0.5"/><line x1="845.09" y1="40" x2="845.09" y2="220" stroke="#e5e7eb" opacity="0.5"/>
    <line x1="40" y1="220" x2="860" y2="220" stroke="#9ca3af"/>
    <line x1="40" y1="40"   x2="40"   y2="220" stroke="#9ca3af"/>
    <path d="M 40.00 219.88 L 42.98 216.10 L 45.96 216.04 L 48.95 216.04 L 51.93 215.50 L 54.91 215.50 L 57.89 209.92 L 60.87 197.32 L 63.85 197.32 L 66.84 193.96 L 69.82 175.06 L 72.80 179.98 L 75.78 179.26 L 78.76 178.78 L 81.75 166.42 L 84.73 166.42 L 87.71 178.12 L 90.69 176.44 L 93.67 176.26 L 96.65 174.40 L 99.64 173.98 L 102.62 173.80 L 105.60 173.20 L 108.58 173.20 L 111.56 171.64 L 114.55 169.96 L 117.53 169.84 L 120.51 167.14 L 123.49 162.82 L 126.47 162.82 L 129.45 162.46 L 132.44 162.46 L 135.42 162.46 L 138.40 162.46 L 141.38 162.46 L 144.36 162.46 L 147.35 161.98 L 150.33 161.98 L 153.31 161.98 L 156.29 161.98 L 159.27 161.98 L 162.25 161.98 L 165.24 161.98 L 168.22 161.98 L 171.20 161.98 L 174.18 161.98 L 177.16 161.98 L 180.15 161.98 L 183.13 161.98 L 186.11 161.98 L 189.09 161.98 L 192.07 161.98 L 195.05 161.98 L 198.04 161.98 L 201.02 161.98 L 204.00 161.98 L 206.98 161.98 L 209.96 161.98 L 212.95 161.98 L 215.93 161.98 L 218.91 161.98 L 221.89 161.98 L 224.87 161.98 L 227.85 161.98 L 230.84 161.98 L 233.82 161.98 L 236.80 161.98 L 239.78 161.98 L 242.76 161.98 L 245.75 161.98 L 248.73 161.98 L 251.71 161.98 L 254.69 161.98 L 257.67 161.98 L 260.65 161.98 L 263.64 161.98 L 266.62 161.98 L 269.60 161.98 L 272.58 161.98 L 275.56 161.98 L 278.55 161.98 L 281.53 161.98 L 284.51 161.98 L 287.49 161.98 L 290.47 161.98 L 293.45 161.98 L 296.44 161.98 L 299.42 161.98 L 302.40 161.98 L 305.38 161.98 L 308.36 161.98 L 311.35 161.98 L 314.33 161.98 L 317.31 161.98 L 320.29 161.98 L 323.27 161.98 L 326.25 161.98 L 329.24 161.98 L 332.22 161.98 L 335.20 161.98 L 338.18 161.98 L 341.16 161.98 L 344.15 161.98 L 347.13 161.98 L 350.11 161.98 L 353.09 161.98 L 356.07 161.98 L 359.05 161.98 L 362.04 161.98 L 365.02 161.98 L 368.00 161.98 L 370.98 161.98 L 373.96 161.98 L 376.95 161.98 L 379.93 161.98 L 382.91 161.98 L 385.89 161.98 L 388.87 161.98 L 391.85 161.98 L 394.84 161.98 L 397.82 161.98 L 400.80 161.98 L 403.78 161.98 L 406.76 161.98 L 409.75 161.98 L 412.73 161.98 L 415.71 161.98 L 418.69 161.98 L 421.67 161.98 L 424.65 161.98 L 427.64 161.98 L 430.62 161.98 L 433.60 161.98 L 436.58 161.98 L 439.56 161.98 L 442.55 161.98 L 445.53 161.98 L 448.51 161.98 L 451.49 161.98 L 454.47 161.98 L 457.45 161.98 L 460.44 161.98 L 463.42 161.98 L 466.40 161.98 L 469.38 161.98 L 472.36 161.98 L 475.35 161.98 L 478.33 161.98 L 481.31 161.98 L 484.29 161.98 L 487.27 161.98 L 490.25 161.98 L 493.24 161.98 L 496.22 156.34 L 499.20 153.76 L 502.18 151.18 L 505.16 148.60 L 508.15 146.02 L 511.13 143.98 L 514.11 143.98 L 517.09 143.98 L 520.07 143.98 L 523.05 143.98 L 526.04 143.86 L 529.02 142.06 L 532.00 138.94 L 534.98 138.94 L 537.96 138.94 L 540.95 138.94 L 543.93 138.94 L 546.91 138.94 L 549.89 138.94 L 552.87 138.94 L 555.85 138.94 L 558.84 138.94 L 561.82 138.94 L 564.80 138.94 L 567.78 138.94 L 570.76 138.94 L 573.75 138.94 L 576.73 138.94 L 579.71 138.94 L 582.69 138.94 L 585.67 138.94 L 588.65 138.94 L 591.64 138.94 L 594.62 138.94 L 597.60 138.94 L 600.58 138.94 L 603.56 138.94 L 606.55 138.94 L 609.53 138.94 L 612.51 138.94 L 615.49 138.94 L 618.47 138.94 L 621.45 138.94 L 624.44 138.94 L 627.42 138.94 L 630.40 138.94 L 633.38 138.94 L 636.36 138.94 L 639.35 138.94 L 642.33 138.94 L 645.31 138.94 L 648.29 138.94 L 651.27 138.94 L 654.25 138.94 L 657.24 138.94 L 660.22 138.94 L 663.20 138.94 L 666.18 138.94 L 669.16 138.94 L 672.15 138.94 L 675.13 138.94 L 678.11 138.94 L 681.09 138.94 L 684.07 138.94 L 687.05 138.94 L 690.04 138.94 L 693.02 138.94 L 696.00 138.94 L 698.98 138.94 L 701.96 138.94 L 704.95 138.94 L 707.93 138.94 L 710.91 138.94 L 713.89 138.94 L 716.87 138.94 L 719.85 138.94 L 722.84 138.94 L 725.82 138.94 L 728.80 138.94 L 731.78 138.94 L 734.76 138.94 L 737.75 138.94 L 740.73 138.94 L 743.71 138.94 L 746.69 138.94 L 749.67 138.94 L 752.65 138.94 L 755.64 138.94 L 758.62 138.94 L 761.60 138.94 L 764.58 138.94 L 767.56 138.94 L 770.55 138.94 L 773.53 138.94 L 776.51 138.94 L 779.49 138.94 L 782.47 138.94 L 785.45 138.94 L 788.44 138.94 L 791.42 138.94 L 794.40 138.94 L 797.38 138.94 L 800.36 138.94 L 803.35 138.94 L 806.33 138.94 L 809.31 126.58 L 812.29 124.66 L 815.27 124.66 L 818.25 124.66 L 821.24 123.64 L 824.22 123.52 L 827.20 113.20 L 830.18 108.46 L 833.16 105.40 L 836.15 104.08 L 839.13 104.08 L 842.11 97.30 L 845.09 89.50 L 848.07 85.00 L 851.05 79.96 L 854.04 72.94 L 857.02 69.16 L 860.00 64.42" fill="none" stroke="#111827" stroke-width="2"/>
    <circle cx="860.00" cy="64.42" r="3" fill="#111827"/>
    <text x="40.00" y="235.00" font-size="9" fill="#111827" text-anchor="middle" transform="rotate(-45 40.00 235.00)">09.08.2025</text><text x="120.51" y="235.00" font-size="9" fill="#111827" text-anchor="middle" transform="rotate(-45 120.51 235.00)">13.08.2025</text><text x="201.02" y="235.00" font-size="9" fill="#111827" text-anchor="middle" transform="rotate(-45 201.02 235.00)">28.08.2025</text><text x="281.53" y="235.00" font-size="9" fill="#111827" text-anchor="middle" transform="rotate(-45 281.53 235.00)">24.09.2025</text><text x="362.04" y="235.00" font-size="9" fill="#111827" text-anchor="middle" transform="rotate(-45 362.04 235.00)">21.10.2025</text><text x="442.55" y="235.00" font-size="9" fill="#111827" text-anchor="middle" transform="rotate(-45 442.55 235.00)">17.11.2025</text><text x="523.05" y="235.00" font-size="9" fill="#111827" text-anchor="middle" transform="rotate(-45 523.05 235.00)">07.12.2025</text><text x="603.56" y="235.00" font-size="9" fill="#111827" text-anchor="middle" transform="rotate(-45 603.56 235.00)">31.12.2025</text><text x="684.07" y="235.00" font-size="9" fill="#111827" text-anchor="middle" transform="rotate(-45 684.07 235.00)">27.01.2026</text><text x="764.58" y="235.00" font-size="9" fill="#111827" text-anchor="middle" transform="rotate(-45 764.58 235.00)">23.02.2026</text><text x="845.09" y="235.00" font-size="9" fill="#111827" text-anchor="middle" transform="rotate(-45 845.09 235.00)">12.05.2026</text>
  </g>
</svg>