<svg xmlns="http://www.w3.org/2000/svg" width="900" height="290" style="font-family: -apple-system, BlinkMacSystemFont, 'Segoe UI', Helvetica, Arial, sans-serif;">
  <rect width="100%" height="100%" fill="#0d1117"/>
  <g>
    <line x1="40" y1="220.00" x2="860" y2="220.00" stroke="#30363d"/><text x="32" y="224.00" font-size="10" fill="#c9d1d9" text-anchor="end">0</text><line x1="40" y1="175.00" x2="860" y2="175.00" stroke="#30363d"/><text x="32" y="179.00" font-size="10" fill="#c9d1d9" text-anchor="end">750</text><line x1="40" y1="130.00" x2="860" y2="130.00" stroke="#30363d"/><text x="32" y="134.00" font-size="10" fill="#c9d1d9" text-anchor="end">1.5k</text><line x1="40" y1="85.00" x2="860" y2="85.00" stroke="#30363d"/><text x="32" y="89.00" font-size="10" fill="#c9d1d9" text-anchor="end">2.2k</text><line x1="40" y1="40.00" x2="860" y2="40.00" stroke="#30363d"/><text x="32" y="44.00" font-size="10" fill="#c9d1d9" text-anchor="end">3k</text>
    <line x1="40.00" y1="40" x2="40.00" y2="220" stroke="#30363d" opacity="0.5"/><line x1="121.71" y1="40" x2="121.71" y2="220" stroke="#30363d" opacity="0.5"/><line x1="203.42" y1="40" x2="203.42" y2="220" stroke="#30363d" opacity="0.5"/><line x1="285.12" y1="40" x2="285.12" y2="220" stroke="#30363d" opacity="0.5"/><line x1="366.83" y1="40" x2="366.83" y2="220" stroke="#30363d" opacity="0.5"/><line x1="448.54" y1="40" x2="448.54" y2="220" stroke="#30363d" opacity="0.5"/><line x1="530.25" y1="40" x2="530.25" y2="220" stroke="#30363d" opacity="0.5"/><line x1="611.96" y1="40" x2="611.96" y2="220" stroke="#30363d" opacity="0.5"/><line x1="693.67" y1="40" x2="693.67" y2="220" stroke="#30363d" opacity="0.5"/><line x1="775.37" y1="40" x2="775.37" y2="220" stroke="#30363d" opacity="0.5"/><line x1="857.08" y1="40" x2="857.08" y2="220" stroke="#30363d" opacity="0.5"/>
    <line x1="40" y1="220" x2="860" y2="220" stroke="#30363d"/>
    <line x1="40" y1="40"   x2="40"   y2="220" stroke="#30363d"/>
    <path d="M 40.00 219.88 L 42.92 216.10 L 45.84 216.04 L 48.75 216.04 L 51.67 215.50 L 54.59 215.50 L 57.51 209.92 L 60.43 197.32 L 63.35 197.32 L 66.26 193.96 L 69.18 175.06 L 72.10 179.98 L 75.02 179.26 L 77.94 178.78 L 80.85 166.42 L 83.77 166.42 L 86.69 178.12 L 89.61 176.44 L 92.53 176.26 L 95.44 174.40 L 98.36 173.98 L 101.28 173.80 L 104.20 173.20 L 107.12 173.20 L 110.04 171.64 L 112.95 169.96 L 115.87 169.84 L 118.79 167.14 L 121.71 162.82 L 124.63 162.82 L 127.54 162.46 L 130.46 162.46 L 133.38 162.46 L 136.30 162.46 L 139.22 162.46 L 142.14 162.46 L 145.05 161.98 L 147.97 161.98 L 150.89 161.98 L 153.81 161.98 L 156.73 161.98 L 159.64 161.98 L 162.56 161.98 L 165.48 161.98 L 168.40 161.98 L 171.32 161.98 L 174.23 161.98 L 177.15 161.98 L 180.07 161.98 L 182.99 161.98 L 185.91 161.98 L 188.83 161.98 L 191.74 161.98 L 194.66 161.98 L 197.58 161.98 L 200.50 161.98 L 203.42 161.98 L 206.33 161.98 L 209.25 161.98 L 212.17 161.98 L 215.09 161.98 L 218.01 161.98 L 220.93 161.98 L 223.84 161.98 L 226.76 161.98 L 229.68 161.98 L 232.60 161.98 L 235.52 161.98 L 238.43 161.98 L 241.35 161.98 L 244.27 161.98 L 247.19 161.98 L 250.11 161.98 L 253.02 161.98 L 255.94 161.98 L 258.86 161.98 L 261.78 161.98 L 264.70 161.98 L 267.62 161.98 L 270.53 161.98 L 273.45 161.98 L 276.37 161.98 L 279.29 161.98 L 282.21 161.98 L 285.12 161.98 L 288.04 161.98 L 290.96 161.98 L 293.88 161.98 L 296.80 161.98 L 299.72 161.98 L 302.63 161.98 L 305.55 161.98 L 308.47 161.98 L 311.39 161.98 L 314.31 161.98 L 317.22 161.98 L 320.14 161.98 L 323.06 161.98 L 325.98 161.98 L 328.90 161.98 L 331.81 161.98 L 334.73 161.98 L 337.65 161.98 L 340.57 161.98 L 343.49 161.98 L 346.41 161.98 L 349.32 161.98 L 352.24 161.98 L 355.16 161.98 L 358.08 161.98 L 361.00 161.98 L 363.91 161.98 L 366.83 161.98 L 369.75 161.98 L 372.67 161.98 L 375.59 161.98 L 378.51 161.98 L 381.42 161.98 L 384.34 161.98 L 387.26 161.98 L 390.18 161.98 L 393.10 161.98 L 396.01 161.98 L 398.93 161.98 L 401.85 161.98 L 404.77 161.98 L 407.69 161.98 L 410.60 161.98 L 413.52 161.98 L 416.44 161.98 L 419.36 161.98 L 422.28 161.98 L 425.20 161.98 L 428.11 161.98 L 431.03 161.98 L 433.95 161.98 L 436.87 161.98 L 439.79 161.98 L 442.70 161.98 L 445.62 161.98 L 448.54 161.98 L 451.46 161.98 L 454.38 161.98 L 457.30 161.98 L 460.21 161.98 L 463.13 161.98 L 466.05 161.98 L 468.97 161.98 L 471.89 161.98 L 474.80 161.98 L 477.72 161.98 L 480.64 161.98 L 483.56 161.98 L 486.48 156.34 L 489.40 153.76 L 492.31 151.18 L 495.23 148.60 L 498.15 146.02 L 501.07 143.98 L 503.99 143.98 L 506.90 143.98 L 509.82 143.98 L 512.74 143.98 L 515.66 143.86 L 518.58 142.06 L 521.49 138.94 L 524.41 138.94 L 527.33 138.94 L 530.25 138.94 L 533.17 138.94 L 536.09 138.94 L 539.00 138.94 L 541.92 138.94 L 544.84 138.94 L 547.76 138.94 L 550.68 138.94 L 553.59 138.94 L 556.51 138.94 L 559.43 138.94 L 562.35 138.94 L 565.27 138.94 L 568.19 138.94 L 571.10 138.94 L 574.02 138.94 L 576.94 138.94 L 579.86 138.94 L 582.78 138.94 L 585.69 138.94 L 588.61 138.94 L 591.53 138.94 L 594.45 138.94 L 597.37 138.94 L 600.28 138.94 L 603.20 138.94 L 606.12 138.94 L 609.04 138.94 L 611.96 138.94 L 614.88 138.94 L 617.79 138.94 L 620.71 138.94 L 623.63 138.94 L 626.55 138.94 L 629.47 138.94 L 632.38 138.94 L 635.30 138.94 L 638.22 138.94 L 641.14 138.94 L 644.06 138.94 L 646.98 138.94 L 649.89 138.94 L 652.81 138.94 L 655.73 138.94 L 658.65 138.94 L 661.57 138.94 L 664.48 138.94 L 667.40 138.94 L 670.32 138.94 L 673.24 138.94 L 676.16 138.94 L 679.07 138.94 L 681.99 138.94 L 684.91 138.94 L 687.83 138.94 L 690.75 138.94 L 693.67 138.94 L 696.58 138.94 L 699.50 138.94 L 702.42 138.94 L 705.34 138.94 L 708.26 138.94 L 711.17 138.94 L 714.09 138.94 L 717.01 138.94 L 719.93 138.94 L 722.85 138.94 L 725.77 138.94 L 728.68 138.94 L 731.60 138.94 L 734.52 138.94 L 737.44 138.94 L 740.36 138.94 L 743.27 138.94 L 746.19 138.94 L 749.11 138.94 L 752.03 138.94 L 754.95 138.94 L 757.86 138.94 L 760.78 138.94 L 763.70 138.94 L 766.62 138.94 L 769.54 138.94 L 772.46 138.94 L 775.37 138.94 L 778.29 138.94 L 781.21 138.94 L 784.13 138.94 L 787.05 138.94 L 789.96 138.94 L 792.88 126.58 L 795.80 124.66 L 798.72 124.66 L 801.64 124.66 L 804.56 123.64 L 807.47 123.52 L 810.39 113.20 L 813.31 108.46 L 816.23 105.40 L 819.15 104.08 L 822.06 104.08 L 824.98 97.30 L 827.90 89.50 L 830.82 85.00 L 833.74 79.96 L 836.65 72.94 L 839.57 69.16 L 842.49 64.42 L 845.41 64.42 L 848.33 60.76 L 851.25 60.40 L 854.16 60.40 L 857.08 51.64 L 860.00 51.58" fill="none" stroke="#3fb950" stroke-width="2"/>
    <circle cx="860.00" cy="51.58" r="3" fill="#3fb950"/>
    <text x="40.00" y="235.00" font-size="9" fill="#c9d1d9" text-anchor="middle" transform="rotate(-45 40.00 235.00)">09.08.2025</text><text x="121.71" y="235.00" font-size="9" fill="#c9d1d9" text-anchor="middle" transform="rotate(-45 121.71 235.00)">13.08.2025</text><text x="203.42" y="235.00" font-size="9" fill="#c9d1d9" text-anchor="middle" transform="rotate(-45 203.42 235.00)">30.08.2025</text><text x="285.12" y="235.00" font-size="9" fill="#c9d1d9" text-anchor="middle" transform="rotate(-45 285.12 235.00)">27.09.2025</text><text x="366.83" y="235.00" font-size="9" fill="#c9d1d9" text-anchor="middle" transform="rotate(-45 366.83 235.00)">25.10.2025</text><text x="448.54" y="235.00" font-size="9" fill="#c9d1d9" text-anchor="middle" transform="rotate(-45 448.54 235.00)">22.11.2025</text><text x="530.25" y="235.00" font-size="9" fill="#c9d1d9" text-anchor="middle" transform="rotate(-45 530.25 235.00)">10.12.2025</text><text x="611.96" y="235.00" font-size="9" fill="#c9d1d9" text-anchor="middle" transform="rotate(-45 611.96 235.00)">07.01.2026</text><text x="693.67" y="235.00" font-size="9" fill="#c9d1d9" text-anchor="middle" transform="rotate(-45 693.67 235.00)">04.02.2026</text><text x="775.37" y="235.00" font-size="9" fill="#c9d1d9" text-anchor="middle" transform="rotate(-45 775.37 235.00)">12.05.2026</text><text x="857.08" y="235.00" font-size="9" fill="#c9d1d9" text-anchor="middle" transform="rotate(-45 857.08 235.00)">14.05.2026</text>
  </g>
</svg>