<svg xmlns="http://www.w3.org/2000/svg" width="900" height="290" style="font-family: -apple-system, BlinkMacSystemFont, 'Segoe UI', Helvetica, Arial, sans-serif;">
  <rect width="100%" height="100%" fill="#0d1117"/>
  <g>
    <line x1="40" y1="220.00" x2="860" y2="220.00" stroke="#30363d"/><text x="32" y="224.00" font-size="10" fill="#c9d1d9" text-anchor="end">0</text><line x1="40" y1="175.00" x2="860" y2="175.00" stroke="#30363d"/><text x="32" y="179.00" font-size="10" fill="#c9d1d9" text-anchor="end">750</text><line x1="40" y1="130.00" x2="860" y2="130.00" stroke="#30363d"/><text x="32" y="134.00" font-size="10" fill="#c9d1d9" text-anchor="end">1.5k</text><line x1="40" y1="85.00" x2="860" y2="85.00" stroke="#30363d"/><text x="32" y="89.00" font-size="10" fill="#c9d1d9" text-anchor="end">2.2k</text><line x1="40" y1="40.00" x2="860" y2="40.00" stroke="#30363d"/><text x="32" y="44.00" font-size="10" fill="#c9d1d9" text-anchor="end">3k</text>
    <line x1="40.00" y1="40" x2="40.00" y2="220" stroke="#30363d" opacity="0.5"/><line x1="119.64" y1="40" x2="119.64" y2="220" stroke="#30363d" opacity="0.5"/><line x1="199.28" y1="40" x2="199.28" y2="220" stroke="#30363d" opacity="0.5"/><line x1="278.92" y1="40" x2="278.92" y2="220" stroke="#30363d" opacity="0.5"/><line x1="358.56" y1="40" x2="358.56" y2="220" stroke="#30363d" opacity="0.5"/><line x1="438.20" y1="40" x2="438.20" y2="220" stroke="#30363d" opacity="0.5"/><line x1="517.84" y1="40" x2="517.84" y2="220" stroke="#30363d" opacity="0.5"/><line x1="597.48" y1="40" x2="597.48" y2="220" stroke="#30363d" opacity="0.5"/><line x1="677.12" y1="40" x2="677.12" y2="220" stroke="#30363d" opacity="0.5"/><line x1="756.76" y1="40" x2="756.76" y2="220" stroke="#30363d" opacity="0.5"/><line x1="836.40" y1="40" x2="836.40" y2="220" stroke="#30363d" opacity="0.5"/>
    <line x1="40" y1="220" x2="860" y2="220" stroke="#30363d"/>
    <line x1="40" y1="40"   x2="40"   y2="220" stroke="#30363d"/>
    <path d="M 40.00 219.88 L 42.95 216.10 L 45.90 216.04 L 48.85 216.04 L 51.80 215.50 L 54.75 215.50 L 57.70 209.92 L 60.65 197.32 L 63.60 197.32 L 66.55 193.96 L 69.50 175.06 L 72.45 179.98 L 75.40 179.26 L 78.35 178.78 L 81.29 166.42 L 84.24 166.42 L 87.19 178.12 L 90.14 176.44 L 93.09 176.26 L 96.04 174.40 L 98.99 173.98 L 101.94 173.80 L 104.89 173.20 L 107.84 173.20 L 110.79 171.64 L 113.74 169.96 L 116.69 169.84 L 119.64 167.14 L 122.59 162.82 L 125.54 162.82 L 128.49 162.46 L 131.44 162.46 L 134.39 162.46 L 137.34 162.46 L 140.29 162.46 L 143.24 162.46 L 146.19 161.98 L 149.14 161.98 L 152.09 161.98 L 155.04 161.98 L 157.99 161.98 L 160.94 161.98 L 163.88 161.98 L 166.83 161.98 L 169.78 161.98 L 172.73 161.98 L 175.68 161.98 L 178.63 161.98 L 181.58 161.98 L 184.53 161.98 L 187.48 161.98 L 190.43 161.98 L 193.38 161.98 L 196.33 161.98 L 199.28 161.98 L 202.23 161.98 L 205.18 161.98 L 208.13 161.98 L 211.08 161.98 L 214.03 161.98 L 216.98 161.98 L 219.93 161.98 L 222.88 161.98 L 225.83 161.98 L 228.78 161.98 L 231.73 161.98 L 234.68 161.98 L 237.63 161.98 L 240.58 161.98 L 243.53 161.98 L 246.47 161.98 L 249.42 161.98 L 252.37 161.98 L 255.32 161.98 L 258.27 161.98 L 261.22 161.98 L 264.17 161.98 L 267.12 161.98 L 270.07 161.98 L 273.02 161.98 L 275.97 161.98 L 278.92 161.98 L 281.87 161.98 L 284.82 161.98 L 287.77 161.98 L 290.72 161.98 L 293.67 161.98 L 296.62 161.98 L 299.57 161.98 L 302.52 161.98 L 305.47 161.98 L 308.42 161.98 L 311.37 161.98 L 314.32 161.98 L 317.27 161.98 L 320.22 161.98 L 323.17 161.98 L 326.12 161.98 L 329.06 161.98 L 332.01 161.98 L 334.96 161.98 L 337.91 161.98 L 340.86 161.98 L 343.81 161.98 L 346.76 161.98 L 349.71 161.98 L 352.66 161.98 L 355.61 161.98 L 358.56 161.98 L 361.51 161.98 L 364.46 161.98 L 367.41 161.98 L 370.36 161.98 L 373.31 161.98 L 376.26 161.98 L 379.21 161.98 L 382.16 161.98 L 385.11 161.98 L 388.06 161.98 L 391.01 161.98 L 393.96 161.98 L 396.91 161.98 L 399.86 161.98 L 402.81 161.98 L 405.76 161.98 L 408.71 161.98 L 411.65 161.98 L 414.60 161.98 L 417.55 161.98 L 420.50 161.98 L 423.45 161.98 L 426.40 161.98 L 429.35 161.98 L 432.30 161.98 L 435.25 161.98 L 438.20 161.98 L 441.15 161.98 L 444.10 161.98 L 447.05 161.98 L 450.00 161.98 L 452.95 161.98 L 455.90 161.98 L 458.85 161.98 L 461.80 161.98 L 464.75 161.98 L 467.70 161.98 L 470.65 161.98 L 473.60 161.98 L 476.55 161.98 L 479.50 161.98 L 482.45 161.98 L 485.40 161.98 L 488.35 161.98 L 491.29 156.34 L 494.24 153.76 L 497.19 151.18 L 500.14 148.60 L 503.09 146.02 L 506.04 143.98 L 508.99 143.98 L 511.94 143.98 L 514.89 143.98 L 517.84 143.98 L 520.79 143.86 L 523.74 142.06 L 526.69 138.94 L 529.64 138.94 L 532.59 138.94 L 535.54 138.94 L 538.49 138.94 L 541.44 138.94 L 544.39 138.94 L 547.34 138.94 L 550.29 138.94 L 553.24 138.94 L 556.19 138.94 L 559.14 138.94 L 562.09 138.94 L 565.04 138.94 L 567.99 138.94 L 570.94 138.94 L 573.88 138.94 L 576.83 138.94 L 579.78 138.94 L 582.73 138.94 L 585.68 138.94 L 588.63 138.94 L 591.58 138.94 L 594.53 138.94 L 597.48 138.94 L 600.43 138.94 L 603.38 138.94 L 606.33 138.94 L 609.28 138.94 L 612.23 138.94 L 615.18 138.94 L 618.13 138.94 L 621.08 138.94 L 624.03 138.94 L 626.98 138.94 L 629.93 138.94 L 632.88 138.94 L 635.83 138.94 L 638.78 138.94 L 641.73 138.94 L 644.68 138.94 L 647.63 138.94 L 650.58 138.94 L 653.53 138.94 L 656.47 138.94 L 659.42 138.94 L 662.37 138.94 L 665.32 138.94 L 668.27 138.94 L 671.22 138.94 L 674.17 138.94 L 677.12 138.94 L 680.07 138.94 L 683.02 138.94 L 685.97 138.94 L 688.92 138.94 L 691.87 138.94 L 694.82 138.94 L 697.77 138.94 L 700.72 138.94 L 703.67 138.94 L 706.62 138.94 L 709.57 138.94 L 712.52 138.94 L 715.47 138.94 L 718.42 138.94 L 721.37 138.94 L 724.32 138.94 L 727.27 138.94 L 730.22 138.94 L 733.17 138.94 L 736.12 138.94 L 739.06 138.94 L 742.01 138.94 L 744.96 138.94 L 747.91 138.94 L 750.86 138.94 L 753.81 138.94 L 756.76 138.94 L 759.71 138.94 L 762.66 138.94 L 765.61 138.94 L 768.56 138.94 L 771.51 138.94 L 774.46 138.94 L 777.41 138.94 L 780.36 138.94 L 783.31 138.94 L 786.26 138.94 L 789.21 138.94 L 792.16 138.94 L 795.11 138.94 L 798.06 138.94 L 801.01 126.58 L 803.96 124.66 L 806.91 124.66 L 809.86 124.66 L 812.81 123.64 L 815.76 123.52 L 818.71 113.20 L 821.65 108.46 L 824.60 105.40 L 827.55 104.08 L 830.50 104.08 L 833.45 97.30 L 836.40 89.50 L 839.35 85.00 L 842.30 79.96 L 845.25 72.94 L 848.20 69.16 L 851.15 64.42 L 854.10 64.42 L 857.05 60.76 L 860.00 60.40" fill="none" stroke="#3fb950" stroke-width="2"/>
    <circle cx="860.00" cy="60.40" r="3" fill="#3fb950"/>
    <text x="40.00" y="235.00" font-size="9" fill="#c9d1d9" text-anchor="middle" transform="rotate(-45 40.00 235.00)">09.08.2025</text><text x="119.64" y="235.00" font-size="9" fill="#c9d1d9" text-anchor="middle" transform="rotate(-45 119.64 235.00)">13.08.2025</text><text x="199.28" y="235.00" font-size="9" fill="#c9d1d9" text-anchor="middle" transform="rotate(-45 199.28 235.00)">28.08.2025</text><text x="278.92" y="235.00" font-size="9" fill="#c9d1d9" text-anchor="middle" transform="rotate(-45 278.92 235.00)">24.09.2025</text><text x="358.56" y="235.00" font-size="9" fill="#c9d1d9" text-anchor="middle" transform="rotate(-45 358.56 235.00)">21.10.2025</text><text x="438.20" y="235.00" font-size="9" fill="#c9d1d9" text-anchor="middle" transform="rotate(-45 438.20 235.00)">17.11.2025</text><text x="517.84" y="235.00" font-size="9" fill="#c9d1d9" text-anchor="middle" transform="rotate(-45 517.84 235.00)">07.12.2025</text><text x="597.48" y="235.00" font-size="9" fill="#c9d1d9" text-anchor="middle" transform="rotate(-45 597.48 235.00)">31.12.2025</text><text x="677.12" y="235.00" font-size="9" fill="#c9d1d9" text-anchor="middle" transform="rotate(-45 677.12 235.00)">27.01.2026</text><text x="756.76" y="235.00" font-size="9" fill="#c9d1d9" text-anchor="middle" transform="rotate(-45 756.76 235.00)">23.02.2026</text><text x="836.40" y="235.00" font-size="9" fill="#c9d1d9" text-anchor="middle" transform="rotate(-45 836.40 235.00)">12.05.2026</text>
  </g>
</svg>